<svg xmlns="http://www.w3.org/2000/svg" viewBox="0 0 167 164"><path d="M83.2588 163.49C129.241 163.49 166.518 126.891 166.518 81.745C166.518 36.5985 129.241 0 83.2588 0C37.2762 0 0 36.5985 0 81.745C0 126.891 37.2762 163.49 83.2588 163.49Z" fill="#FFCF0B" />
<path d="M145.326 81.1884C145.355 91.8812 142.782 102.411 137.842 111.814C132.903 121.218 125.754 129.195 117.05 135.016C108.346 140.837 98.3643 144.317 88.0184 145.136C77.6725 145.956 67.2922 144.089 57.827 139.708C48.3618 135.326 40.1137 128.568 33.8372 120.054C27.5606 111.539 23.4559 101.538 21.8984 90.9666C20.341 80.3949 21.3804 69.5896 24.9218 59.5388C28.4632 49.488 34.3934 40.5126 42.1701 33.4334C38.9872 56.8681 35.8044 107.067 67.2509 107.067C105.604 107.067 96.4536 46.2413 79.9824 18.1656C96.2786 25.3485 123.11 44.913 115.964 90.6017C115.964 90.6017 135.062 86.4034 135.348 46.5365C141.866 56.8451 145.333 68.8849 145.326 81.1884ZM64.0522 25.1189C64.0522 25.1189 48.6472 65.2646 67.0441 93.6519C67.0441 93.6519 89.3718 73.5627 64.0522 25.1189Z" fill="#09193B" />
</svg>